Coordinates
version=1
nRows=21
nColumns=28
inDegrees=yes

Units are S.I. units (second, meters, Newtons, ...)
Angles are in degrees.

endheader
time	pelvis_tilt	pelvis_list	pelvis_rotation	pelvis_tx	pelvis_ty	pelvis_tz	hip_flexion_r	hip_adduction_r	hip_rotation_r	knee_angle_r	ankle_angle_r	subtalar_angle_r	mtp_angle_r	hip_flexion_l	hip_adduction_l	hip_rotation_l	knee_angle_l	socket_flexion	socket_adduction	socket_rotation	socket_tx	socket_ty	socket_tz	foot_flex	lumbar_extension	lumbar_bending	lumbar_rotation
      0.97916667	      5.99551424	      1.77648695	     -2.53872196	      0.39255137	      1.02424094	      0.26358685	      2.92423392	      3.14759471	      1.08334682	    -22.76928303	     10.86559340	    -10.58525644	     28.28445117	     11.05125730	     -2.29070037	     -3.37343373	    -74.57704199	    -11.14781826	      0.00000000	      0.00000000	      0.00000000	      0.05734114	      0.00000000	      5.10317779	    -15.37752670	     -1.72100532	      7.46395914
      0.98333333	      6.02230978	      1.88844773	     -2.78683698	      0.39733251	      1.02503789	      0.26393877	      2.46603898	      2.96662405	      1.08818906	    -22.47740583	     10.86734843	    -10.41697966	     28.33940531	     11.58319552	     -2.23892779	     -3.35915355	    -74.35535590	    -11.15611486	      0.00000000	      0.00000000	      0.00000000	      0.05727970	      0.00000000	      5.12138505	    -15.37782696	     -1.90466173	      7.61389870
      0.98750000	      6.13334384	      2.05029296	     -3.09662911	      0.40203323	      1.02596006	      0.26437983	      1.93187667	      2.73459513	      1.20428661	    -22.20251319	     10.86036816	     -9.91042327	     28.45242339	     11.96089777	     -2.09274254	     -3.34027493	    -73.98500866	    -11.15107867	      0.00000000	      0.00000000	      0.00000000	      0.05699992	      0.00000000	      5.12961343	    -15.49569600	     -2.22569594	      8.05937319
      0.99166667	      6.17577387	      2.19984263	     -3.39561794	      0.40698135	      1.02673407	      0.26474607	      1.45179688	      2.50081569	      1.25833701	    -21.92637854	     10.87976668	     -9.61477764	     28.45987192	     12.30385621	     -1.95626899	     -3.32131555	    -73.45418947	    -11.14027529	      0.00000000	      0.00000000	      0.00000000	      0.05607001	      0.00000000	      5.00612272	    -15.48868920	     -2.47752571	      8.24057598
      0.99583333	      6.23607421	      2.25967378	     -3.61477615	      0.41149194	      1.02748690	      0.26487859	      0.98454321	      2.34929090	      1.22825012	    -21.64598133	     10.88174949	     -9.19164240	     28.61191150	     12.80307806	     -1.88919162	     -3.19069095	    -73.14923758	    -11.14452697	      0.00000000	      0.00000000	      0.00000000	      0.05599969	      0.00000000	      5.17029921	    -15.58624000	     -2.58659263	      8.61614013
      1.00000000	      6.25830129	      2.37134417	     -3.85249419	      0.41620344	      1.02817098	      0.26524957	      0.54780466	      2.16857833	      1.26575591	    -21.37802326	     10.87363051	     -8.88699354	     28.67512841	     13.22584728	     -1.78697845	     -3.09027062	    -72.63916843	    -11.14067218	      0.00000000	      0.00000000	      0.00000000	      0.05533449	      0.00000000	      5.09389663	    -15.58771506	     -2.82082116	      8.78015359
      1.00416667	      6.27198858	      2.43822274	     -4.06840979	      0.42082932	      1.02880918	      0.26543290	      0.12383997	      2.01294186	      1.24756810	    -21.10125320	     10.84520032	     -8.55189190	     28.81154446	     13.68264416	     -1.70312218	     -2.94338889	    -72.14875516	    -11.13546975	      0.00000000	      0.00000000	      0.00000000	      0.05480214	      0.00000000	      5.11140166	    -15.60690402	     -2.94527029	      9.01607965
      1.00833333	      6.26256154	      2.53269215	     -4.31103237	      0.42556025	      1.02938248	      0.26571234	     -0.27214586	      1.83650278	      1.26755704	    -20.84184925	     10.83285725	     -8.30803032	     28.84970406	     14.06442122	     -1.59931907	     -2.82904034	    -71.48551105	    -11.11966200	      0.00000000	      0.00000000	      0.00000000	      0.05377854	      0.00000000	      5.02627703	    -15.56601518	     -3.11578739	      9.14252426
      1.01250000	      6.24744674	      2.51605273	     -4.46258946	      0.43004417	      1.02987863	      0.26579569	     -0.65196162	      1.77035232	      1.17688295	    -20.57864172	     10.75883032	     -7.89778385	     29.11536477	     14.54312367	     -1.58545272	     -2.58320361	    -70.94791022	    -11.11533965	      0.00000000	      0.00000000	      0.00000000	      0.05309023	      0.00000000	      5.10043130	    -15.57762521	     -3.15348470	      9.45138695
      1.01666667	      6.23223762	      2.59701881	     -4.69692152	      0.43463164	      1.03037629	      0.26601276	     -1.02115168	      1.60352374	      1.21689859	    -20.34464374	     10.74288523	     -7.65901870	     29.18197399	     14.91762768	     -1.47581251	     -2.42579452	    -70.21045764	    -11.09354707	      0.00000000	      0.00000000	      0.00000000	      0.05203750	      0.00000000	      5.01523409	    -15.54855074	     -3.30487525	      9.55179603
      1.02083333	      6.19901612	      2.64299063	     -4.92417077	      0.43926379	      1.03081388	      0.26625157	     -1.37568261	      1.47409970	      1.20129566	    -20.09765500	     10.72370796	     -7.44076655	     29.22565765	     15.27522040	     -1.40924132	     -2.26725295	    -69.41233291	    -11.06710392	      0.00000000	      0.00000000	      0.00000000	      0.05083442	      0.00000000	      4.96054282	    -15.50703488	     -3.40580983	      9.67315493
      1.02500000	      6.10012014	      2.55229138	     -5.01741859	      0.44375195	      1.03109497	      0.26621941	     -1.68482392	      1.49231481	      1.08793113	    -19.80354240	     10.53904679	     -7.00273521	     29.60396950	     15.76168920	     -1.45145280	     -1.92210850	    -68.69604520	    -11.04636020	      0.00000000	      0.00000000	      0.00000000	      0.04967464	      0.00000000	      4.96379755	    -15.42563681	     -3.34203299	      9.97305436
      1.02916667	      6.02624743	      2.55971873	     -5.17767045	      0.44806584	      1.03135782	      0.26632885	     -1.95718477	      1.41863774	      1.09105732	    -19.61889847	     10.55761661	     -6.88915803	     29.71246812	     16.21429747	     -1.40289508	     -1.66122940	    -67.91804786	    -11.01237242	      0.00000000	      0.00000000	      0.00000000	      0.04865318	      0.00000000	      4.97576805	    -15.39870591	     -3.37356209	     10.03167750
      1.03333333	      5.92890623	      2.52649152	     -5.35305160	      0.45268861	      1.03160747	      0.26645715	     -2.26711719	      1.37199381	      1.04219477	    -19.32887317	     10.43933547	     -6.57373751	     29.96454686	     16.56757271	     -1.40341983	     -1.40974525	    -66.95706794	    -10.95612617	      0.00000000	      0.00000000	      0.00000000	      0.04710779	      0.00000000	      4.88599183	    -15.28728964	     -3.38751388	     10.20449559
      1.03750000	      5.85865925	      2.48779875	     -5.48196018	      0.45677542	      1.03177587	      0.26648421	     -2.50665609	      1.35437330	      1.07547701	    -19.20984945	     10.43255374	     -6.44814877	     30.05281516	     17.00011884	     -1.37844897	     -1.06164321	    -66.09141606	    -10.89593600	      0.00000000	      0.00000000	      0.00000000	      0.04592806	      0.00000000	      4.88679491	    -15.29059136	     -3.36452485	     10.28783174
      1.04166667	      5.72101902	      2.42635294	     -5.62067269	      0.46145784	      1.03191869	      0.26663434	     -2.79819965	      1.34966694	      0.99859869	    -18.87931692	     10.34861392	     -6.19118899	     30.22066627	     17.30752786	     -1.42181064	     -0.79199221	    -64.92933208	    -10.76436463	      0.00000000	      0.00000000	      0.00000000	      0.04397533	      0.00000000	      4.78783914	    -15.13152710	     -3.33022267	     10.44234569
      1.04583333	      6.00862907	      2.78778911	     -5.95414298	      0.46552602	      1.03332945	      0.26794129	     -3.45471718	      0.91846627	      1.20416191	    -18.56406311	     10.13019959	     -6.00634810	     30.91478146	     17.42565735	     -1.07743049	     -0.76549852	    -64.00042682	    -10.66238834	      0.00000000	      0.00000000	      0.00000000	      0.04487974	      0.00000000	      4.75935724	    -15.49019318	     -3.98250437	     10.74848203
      1.05000000	      5.89940844	      2.73354329	     -6.07323090	      0.47000411	      1.03343580	      0.26800186	     -3.74925308	      0.91297101	      1.21042653	    -18.28447985	     10.07041014	     -5.86925986	     31.00062771	     17.88019738	     -1.08111200	     -0.41384956	    -63.12364289	    -10.62387208	      0.00000000	      0.00000000	      0.00000000	      0.04410960	      0.00000000	      4.73977951	    -15.39957362	     -3.93665905	     10.82226369
      1.05416667	      5.85528725	      2.66708307	     -6.28175985	      0.47450203	      1.03361364	      0.26816647	     -4.07647062	      0.89160995	      1.22230219	    -18.06163610	      9.89017550	     -5.61953973	     31.24608204	     18.15818801	     -1.11318196	     -0.12759868	    -62.05653262	    -10.53021287	      0.00000000	      0.00000000	      0.00000000	      0.04299527	      0.00000000	      4.71434755	    -15.38427828	     -3.90645870	     10.99501153
      1.05833333	      5.78394198	      2.60845619	     -6.41079151	      0.47886179	      1.03368251	      0.26825940	     -4.38378672	      0.89301093	      1.26774129	    -17.83554821	      9.91888687	     -5.49097218	     31.33238621	     18.59524401	     -1.11487815	      0.25190529	    -61.22406087	    -10.53604055	      0.00000000	      0.00000000	      0.00000000	      0.04254392	      0.00000000	      4.69937445	    -15.34787035	     -3.87765229	     11.10387792
      1.06250000	      5.92127282	      2.54776743	     -6.64063469	      0.48357367	      1.03405275	      0.26848538	     -4.94952870	      0.82089400	      1.19237582	    -17.52845461	      9.67965500	     -5.13824198	     32.23998640	     18.51388134	     -1.13994525	      0.48801735	    -59.85225883	    -10.34359452	      0.00000000	      0.00000000	      0.00000000	      0.04079115	      0.00000000	      4.64495322	    -15.50110504	     -3.89896301	     11.34690745
